<mxfile host="app.diagrams.net" modified="2021-10-13T01:01:28.046Z" agent="5.0 (Windows)" etag="mJUKZqL9sVgR-sKQRp0l" version="14.9.8" type="github">
  <diagram id="ZrCficOF1wyF53tZasKa" name="Struktur Fungsional">
    <mxGraphModel dx="1221" dy="654" grid="1" gridSize="10" guides="1" tooltips="1" connect="1" arrows="1" fold="1" page="1" pageScale="1" pageWidth="850" pageHeight="1100" math="0" shadow="0">
      <root>
        <mxCell id="0" />
        <mxCell id="1" parent="0" />
        <mxCell id="OVLUpKgA7s6hG_SyViUj-1" style="edgeStyle=orthogonalEdgeStyle;rounded=0;orthogonalLoop=1;jettySize=auto;html=1;entryX=0.5;entryY=0;entryDx=0;entryDy=0;exitX=0.5;exitY=1;exitDx=0;exitDy=0;strokeWidth=2;shadow=0;fontFamily=Verdana;fontStyle=0;align=center;labelBackgroundColor=none;labelBorderColor=none;verticalAlign=middle;endArrow=none;endFill=0;" edge="1" parent="1" source="OVLUpKgA7s6hG_SyViUj-5" target="OVLUpKgA7s6hG_SyViUj-10">
          <mxGeometry relative="1" as="geometry" />
        </mxCell>
        <mxCell id="OVLUpKgA7s6hG_SyViUj-2" style="edgeStyle=orthogonalEdgeStyle;rounded=0;orthogonalLoop=1;jettySize=auto;html=1;exitX=0.5;exitY=1;exitDx=0;exitDy=0;strokeWidth=2;shadow=0;fontFamily=Verdana;fontStyle=0;align=center;labelBackgroundColor=none;labelBorderColor=none;verticalAlign=middle;endArrow=none;endFill=0;" edge="1" parent="1" source="OVLUpKgA7s6hG_SyViUj-5" target="OVLUpKgA7s6hG_SyViUj-15">
          <mxGeometry relative="1" as="geometry" />
        </mxCell>
        <mxCell id="OVLUpKgA7s6hG_SyViUj-3" style="edgeStyle=orthogonalEdgeStyle;rounded=0;orthogonalLoop=1;jettySize=auto;html=1;exitX=0.5;exitY=1;exitDx=0;exitDy=0;entryX=0.53;entryY=-0.005;entryDx=0;entryDy=0;entryPerimeter=0;strokeWidth=2;shadow=0;fontFamily=Verdana;fontStyle=0;align=center;labelBackgroundColor=none;labelBorderColor=none;verticalAlign=middle;endArrow=none;endFill=0;" edge="1" parent="1" source="OVLUpKgA7s6hG_SyViUj-5" target="OVLUpKgA7s6hG_SyViUj-22">
          <mxGeometry relative="1" as="geometry" />
        </mxCell>
        <mxCell id="OVLUpKgA7s6hG_SyViUj-4" style="edgeStyle=orthogonalEdgeStyle;rounded=0;orthogonalLoop=1;jettySize=auto;html=1;exitX=0.5;exitY=1;exitDx=0;exitDy=0;entryX=0.539;entryY=0.023;entryDx=0;entryDy=0;entryPerimeter=0;strokeWidth=2;shadow=0;fontFamily=Verdana;fontStyle=0;align=center;labelBackgroundColor=none;labelBorderColor=none;verticalAlign=middle;endArrow=none;endFill=0;" edge="1" parent="1" source="OVLUpKgA7s6hG_SyViUj-5" target="OVLUpKgA7s6hG_SyViUj-28">
          <mxGeometry relative="1" as="geometry" />
        </mxCell>
        <mxCell id="OVLUpKgA7s6hG_SyViUj-5" value="&lt;p&gt;&lt;font&gt;&lt;span&gt;SISTEM PEMESANAN KAMAR HOTEL&lt;/span&gt;&lt;/font&gt;&lt;/p&gt;" style="html=1;dashed=0;whitespace=wrap;fillColor=#FF9933;strokeColor=#330000;strokeWidth=2;shadow=0;fontFamily=Verdana;fontStyle=1;align=center;labelBackgroundColor=none;labelBorderColor=none;whiteSpace=wrap;verticalAlign=middle;" vertex="1" parent="1">
          <mxGeometry x="280" y="40" width="400" height="50" as="geometry" />
        </mxCell>
        <mxCell id="OVLUpKgA7s6hG_SyViUj-6" style="edgeStyle=orthogonalEdgeStyle;rounded=0;orthogonalLoop=1;jettySize=auto;html=1;entryX=0;entryY=0.5;entryDx=0;entryDy=0;strokeWidth=2;shadow=0;fontFamily=Verdana;fontStyle=0;align=center;labelBackgroundColor=none;labelBorderColor=none;verticalAlign=middle;endArrow=none;endFill=0;" edge="1" parent="1" source="OVLUpKgA7s6hG_SyViUj-10" target="OVLUpKgA7s6hG_SyViUj-30">
          <mxGeometry relative="1" as="geometry">
            <Array as="points">
              <mxPoint x="60" y="250" />
            </Array>
          </mxGeometry>
        </mxCell>
        <mxCell id="OVLUpKgA7s6hG_SyViUj-7" style="edgeStyle=orthogonalEdgeStyle;rounded=0;orthogonalLoop=1;jettySize=auto;html=1;entryX=0;entryY=0.5;entryDx=0;entryDy=0;strokeWidth=2;shadow=0;fontFamily=Verdana;fontStyle=0;align=center;labelBackgroundColor=none;labelBorderColor=none;verticalAlign=middle;endArrow=none;endFill=0;" edge="1" parent="1" source="OVLUpKgA7s6hG_SyViUj-10" target="OVLUpKgA7s6hG_SyViUj-29">
          <mxGeometry relative="1" as="geometry">
            <Array as="points">
              <mxPoint x="60" y="300" />
            </Array>
          </mxGeometry>
        </mxCell>
        <mxCell id="OVLUpKgA7s6hG_SyViUj-8" style="edgeStyle=orthogonalEdgeStyle;rounded=0;orthogonalLoop=1;jettySize=auto;html=1;entryX=0;entryY=0.5;entryDx=0;entryDy=0;strokeWidth=2;shadow=0;fontFamily=Verdana;fontStyle=0;align=center;labelBackgroundColor=none;labelBorderColor=none;verticalAlign=middle;endArrow=none;endFill=0;" edge="1" parent="1" source="OVLUpKgA7s6hG_SyViUj-10" target="OVLUpKgA7s6hG_SyViUj-31">
          <mxGeometry relative="1" as="geometry">
            <Array as="points">
              <mxPoint x="60" y="350" />
            </Array>
          </mxGeometry>
        </mxCell>
        <mxCell id="OVLUpKgA7s6hG_SyViUj-9" style="edgeStyle=orthogonalEdgeStyle;rounded=0;orthogonalLoop=1;jettySize=auto;html=1;entryX=0;entryY=0.5;entryDx=0;entryDy=0;strokeWidth=2;shadow=0;fontFamily=Verdana;fontStyle=0;align=center;labelBackgroundColor=none;labelBorderColor=none;verticalAlign=middle;endArrow=none;endFill=0;" edge="1" parent="1" source="OVLUpKgA7s6hG_SyViUj-10" target="OVLUpKgA7s6hG_SyViUj-32">
          <mxGeometry relative="1" as="geometry">
            <Array as="points">
              <mxPoint x="60" y="400" />
            </Array>
          </mxGeometry>
        </mxCell>
        <mxCell id="OVLUpKgA7s6hG_SyViUj-10" value="ENTITAS HOTEL" style="html=1;dashed=0;whitespace=wrap;strokeColor=#330000;fillColor=#3399FF;shadow=0;glass=0;sketch=0;rounded=0;strokeWidth=2;fontFamily=Verdana;fontStyle=1;align=center;labelBackgroundColor=none;labelBorderColor=none;whiteSpace=wrap;verticalAlign=middle;" vertex="1" parent="1">
          <mxGeometry x="40" y="150" width="160" height="50" as="geometry" />
        </mxCell>
        <mxCell id="OVLUpKgA7s6hG_SyViUj-11" style="edgeStyle=orthogonalEdgeStyle;rounded=0;orthogonalLoop=1;jettySize=auto;html=1;entryX=0;entryY=0.5;entryDx=0;entryDy=0;strokeWidth=2;shadow=0;fontFamily=Verdana;fontStyle=0;align=center;labelBackgroundColor=none;labelBorderColor=none;verticalAlign=middle;endArrow=none;endFill=0;" edge="1" parent="1" source="OVLUpKgA7s6hG_SyViUj-15" target="OVLUpKgA7s6hG_SyViUj-34">
          <mxGeometry relative="1" as="geometry">
            <Array as="points">
              <mxPoint x="300" y="250" />
            </Array>
          </mxGeometry>
        </mxCell>
        <mxCell id="OVLUpKgA7s6hG_SyViUj-12" style="edgeStyle=orthogonalEdgeStyle;rounded=0;orthogonalLoop=1;jettySize=auto;html=1;entryX=0;entryY=0.5;entryDx=0;entryDy=0;strokeWidth=2;shadow=0;fontFamily=Verdana;fontStyle=0;align=center;labelBackgroundColor=none;labelBorderColor=none;verticalAlign=middle;endArrow=none;endFill=0;" edge="1" parent="1" source="OVLUpKgA7s6hG_SyViUj-15" target="OVLUpKgA7s6hG_SyViUj-33">
          <mxGeometry relative="1" as="geometry">
            <Array as="points">
              <mxPoint x="300" y="300" />
            </Array>
          </mxGeometry>
        </mxCell>
        <mxCell id="OVLUpKgA7s6hG_SyViUj-13" style="edgeStyle=orthogonalEdgeStyle;rounded=0;orthogonalLoop=1;jettySize=auto;html=1;entryX=0;entryY=0.5;entryDx=0;entryDy=0;strokeWidth=2;shadow=0;fontFamily=Verdana;fontStyle=0;align=center;labelBackgroundColor=none;labelBorderColor=none;verticalAlign=middle;endArrow=none;endFill=0;" edge="1" parent="1" source="OVLUpKgA7s6hG_SyViUj-15" target="OVLUpKgA7s6hG_SyViUj-35">
          <mxGeometry relative="1" as="geometry">
            <Array as="points">
              <mxPoint x="300" y="350" />
            </Array>
          </mxGeometry>
        </mxCell>
        <mxCell id="OVLUpKgA7s6hG_SyViUj-14" style="edgeStyle=orthogonalEdgeStyle;rounded=0;orthogonalLoop=1;jettySize=auto;html=1;entryX=0;entryY=0.5;entryDx=0;entryDy=0;strokeWidth=2;shadow=0;fontFamily=Verdana;fontStyle=0;align=center;labelBackgroundColor=none;labelBorderColor=none;verticalAlign=middle;endArrow=none;endFill=0;" edge="1" parent="1" source="OVLUpKgA7s6hG_SyViUj-15" target="OVLUpKgA7s6hG_SyViUj-36">
          <mxGeometry relative="1" as="geometry">
            <Array as="points">
              <mxPoint x="300" y="400" />
            </Array>
          </mxGeometry>
        </mxCell>
        <mxCell id="OVLUpKgA7s6hG_SyViUj-15" value="DOKUMEN" style="html=1;dashed=0;whitespace=wrap;strokeColor=#330000;fillColor=#3399FF;strokeWidth=2;shadow=0;fontFamily=Verdana;fontStyle=1;align=center;labelBackgroundColor=none;labelBorderColor=none;whiteSpace=wrap;verticalAlign=middle;" vertex="1" parent="1">
          <mxGeometry x="280" y="150" width="160" height="50" as="geometry" />
        </mxCell>
        <mxCell id="OVLUpKgA7s6hG_SyViUj-16" style="edgeStyle=orthogonalEdgeStyle;rounded=0;orthogonalLoop=1;jettySize=auto;html=1;entryX=0;entryY=0.5;entryDx=0;entryDy=0;strokeWidth=2;shadow=0;fontFamily=Verdana;fontStyle=0;align=center;labelBackgroundColor=none;labelBorderColor=none;verticalAlign=middle;endArrow=none;endFill=0;" edge="1" parent="1" source="OVLUpKgA7s6hG_SyViUj-22" target="OVLUpKgA7s6hG_SyViUj-38">
          <mxGeometry relative="1" as="geometry">
            <Array as="points">
              <mxPoint x="540" y="250" />
            </Array>
          </mxGeometry>
        </mxCell>
        <mxCell id="OVLUpKgA7s6hG_SyViUj-17" style="edgeStyle=orthogonalEdgeStyle;rounded=0;orthogonalLoop=1;jettySize=auto;html=1;entryX=0;entryY=0.5;entryDx=0;entryDy=0;strokeWidth=2;shadow=0;fontFamily=Verdana;fontStyle=0;align=center;labelBackgroundColor=none;labelBorderColor=none;verticalAlign=middle;endArrow=none;endFill=0;" edge="1" parent="1" source="OVLUpKgA7s6hG_SyViUj-22" target="OVLUpKgA7s6hG_SyViUj-37">
          <mxGeometry relative="1" as="geometry">
            <Array as="points">
              <mxPoint x="540" y="300" />
            </Array>
          </mxGeometry>
        </mxCell>
        <mxCell id="OVLUpKgA7s6hG_SyViUj-18" style="edgeStyle=orthogonalEdgeStyle;rounded=0;orthogonalLoop=1;jettySize=auto;html=1;entryX=0;entryY=0.5;entryDx=0;entryDy=0;strokeWidth=2;shadow=0;fontFamily=Verdana;fontStyle=0;align=center;labelBackgroundColor=none;labelBorderColor=none;verticalAlign=middle;endArrow=none;endFill=0;" edge="1" parent="1" source="OVLUpKgA7s6hG_SyViUj-22" target="OVLUpKgA7s6hG_SyViUj-39">
          <mxGeometry relative="1" as="geometry">
            <Array as="points">
              <mxPoint x="540" y="350" />
            </Array>
          </mxGeometry>
        </mxCell>
        <mxCell id="OVLUpKgA7s6hG_SyViUj-19" style="edgeStyle=orthogonalEdgeStyle;rounded=0;orthogonalLoop=1;jettySize=auto;html=1;entryX=0;entryY=0.5;entryDx=0;entryDy=0;strokeWidth=2;shadow=0;fontFamily=Verdana;fontStyle=0;align=center;labelBackgroundColor=none;labelBorderColor=none;verticalAlign=middle;endArrow=none;endFill=0;" edge="1" parent="1" source="OVLUpKgA7s6hG_SyViUj-22" target="OVLUpKgA7s6hG_SyViUj-40">
          <mxGeometry relative="1" as="geometry">
            <Array as="points">
              <mxPoint x="540" y="400" />
            </Array>
          </mxGeometry>
        </mxCell>
        <mxCell id="OVLUpKgA7s6hG_SyViUj-20" style="edgeStyle=orthogonalEdgeStyle;rounded=0;orthogonalLoop=1;jettySize=auto;html=1;entryX=0;entryY=0.5;entryDx=0;entryDy=0;strokeWidth=2;shadow=0;fontFamily=Verdana;fontStyle=0;align=center;labelBackgroundColor=none;labelBorderColor=none;verticalAlign=middle;endArrow=none;endFill=0;" edge="1" parent="1" source="OVLUpKgA7s6hG_SyViUj-22" target="OVLUpKgA7s6hG_SyViUj-41">
          <mxGeometry relative="1" as="geometry">
            <Array as="points">
              <mxPoint x="540" y="450" />
            </Array>
          </mxGeometry>
        </mxCell>
        <mxCell id="OVLUpKgA7s6hG_SyViUj-21" style="edgeStyle=orthogonalEdgeStyle;rounded=0;orthogonalLoop=1;jettySize=auto;html=1;entryX=0;entryY=0.5;entryDx=0;entryDy=0;strokeWidth=2;shadow=0;fontFamily=Verdana;fontStyle=0;align=center;labelBackgroundColor=none;labelBorderColor=none;verticalAlign=middle;endArrow=none;endFill=0;" edge="1" parent="1" source="OVLUpKgA7s6hG_SyViUj-22" target="OVLUpKgA7s6hG_SyViUj-42">
          <mxGeometry relative="1" as="geometry">
            <Array as="points">
              <mxPoint x="540" y="500" />
            </Array>
          </mxGeometry>
        </mxCell>
        <mxCell id="OVLUpKgA7s6hG_SyViUj-22" value="PROSES" style="html=1;dashed=0;whitespace=wrap;strokeColor=#330000;fillColor=#3399FF;strokeWidth=2;shadow=0;fontFamily=Verdana;fontStyle=1;align=center;labelBackgroundColor=none;labelBorderColor=none;whiteSpace=wrap;verticalAlign=middle;" vertex="1" parent="1">
          <mxGeometry x="520" y="150" width="160" height="50" as="geometry" />
        </mxCell>
        <mxCell id="OVLUpKgA7s6hG_SyViUj-23" style="edgeStyle=orthogonalEdgeStyle;rounded=0;orthogonalLoop=1;jettySize=auto;html=1;entryX=0;entryY=0.5;entryDx=0;entryDy=0;strokeWidth=2;shadow=0;fontFamily=Verdana;fontStyle=0;align=center;labelBackgroundColor=none;labelBorderColor=none;verticalAlign=middle;endArrow=none;endFill=0;" edge="1" parent="1" source="OVLUpKgA7s6hG_SyViUj-28" target="OVLUpKgA7s6hG_SyViUj-44">
          <mxGeometry relative="1" as="geometry">
            <Array as="points">
              <mxPoint x="780" y="250" />
            </Array>
          </mxGeometry>
        </mxCell>
        <mxCell id="OVLUpKgA7s6hG_SyViUj-24" style="edgeStyle=orthogonalEdgeStyle;rounded=0;orthogonalLoop=1;jettySize=auto;html=1;entryX=0;entryY=0.5;entryDx=0;entryDy=0;strokeWidth=2;shadow=0;fontFamily=Verdana;fontStyle=0;align=center;labelBackgroundColor=none;labelBorderColor=none;verticalAlign=middle;endArrow=none;endFill=0;" edge="1" parent="1" source="OVLUpKgA7s6hG_SyViUj-28" target="OVLUpKgA7s6hG_SyViUj-43">
          <mxGeometry relative="1" as="geometry">
            <Array as="points">
              <mxPoint x="780" y="300" />
            </Array>
          </mxGeometry>
        </mxCell>
        <mxCell id="OVLUpKgA7s6hG_SyViUj-25" style="edgeStyle=orthogonalEdgeStyle;rounded=0;orthogonalLoop=1;jettySize=auto;html=1;entryX=0;entryY=0.5;entryDx=0;entryDy=0;strokeWidth=2;shadow=0;fontFamily=Verdana;fontStyle=0;align=center;labelBackgroundColor=none;labelBorderColor=none;verticalAlign=middle;endArrow=none;endFill=0;" edge="1" parent="1" source="OVLUpKgA7s6hG_SyViUj-28" target="OVLUpKgA7s6hG_SyViUj-45">
          <mxGeometry relative="1" as="geometry">
            <Array as="points">
              <mxPoint x="780" y="350" />
            </Array>
          </mxGeometry>
        </mxCell>
        <mxCell id="OVLUpKgA7s6hG_SyViUj-26" style="edgeStyle=orthogonalEdgeStyle;rounded=0;orthogonalLoop=1;jettySize=auto;html=1;entryX=0;entryY=0.5;entryDx=0;entryDy=0;strokeWidth=2;shadow=0;fontFamily=Verdana;fontStyle=0;align=center;labelBackgroundColor=none;labelBorderColor=none;verticalAlign=middle;endArrow=none;endFill=0;" edge="1" parent="1" source="OVLUpKgA7s6hG_SyViUj-28" target="OVLUpKgA7s6hG_SyViUj-46">
          <mxGeometry relative="1" as="geometry">
            <Array as="points">
              <mxPoint x="780" y="400" />
            </Array>
          </mxGeometry>
        </mxCell>
        <mxCell id="OVLUpKgA7s6hG_SyViUj-27" style="edgeStyle=orthogonalEdgeStyle;rounded=0;orthogonalLoop=1;jettySize=auto;html=1;entryX=0;entryY=0.5;entryDx=0;entryDy=0;strokeWidth=2;shadow=0;fontFamily=Verdana;fontStyle=0;align=center;labelBackgroundColor=none;labelBorderColor=none;verticalAlign=middle;endArrow=none;endFill=0;" edge="1" parent="1" source="OVLUpKgA7s6hG_SyViUj-28" target="OVLUpKgA7s6hG_SyViUj-47">
          <mxGeometry relative="1" as="geometry">
            <Array as="points">
              <mxPoint x="780" y="450" />
            </Array>
          </mxGeometry>
        </mxCell>
        <mxCell id="OVLUpKgA7s6hG_SyViUj-28" value="LAPORAN" style="html=1;dashed=0;whitespace=wrap;strokeColor=#330000;fillColor=#3399FF;strokeWidth=2;shadow=0;fontFamily=Verdana;fontStyle=1;align=center;labelBackgroundColor=none;labelBorderColor=none;whiteSpace=wrap;verticalAlign=middle;" vertex="1" parent="1">
          <mxGeometry x="760" y="150" width="160" height="50" as="geometry" />
        </mxCell>
        <mxCell id="OVLUpKgA7s6hG_SyViUj-29" value="Receptionist" style="html=1;dashed=0;whitespace=wrap;strokeColor=#330000;fillColor=#00994D;shadow=0;glass=0;sketch=0;rounded=0;strokeWidth=2;fontFamily=Verdana;fontStyle=0;align=center;labelBackgroundColor=none;labelBorderColor=none;whiteSpace=wrap;verticalAlign=middle;" vertex="1" parent="1">
          <mxGeometry x="90" y="280" width="130" height="40" as="geometry" />
        </mxCell>
        <mxCell id="OVLUpKgA7s6hG_SyViUj-30" value="Tamu" style="html=1;dashed=0;whitespace=wrap;strokeColor=#330000;fillColor=#00994D;shadow=0;glass=0;sketch=0;rounded=0;strokeWidth=2;fontFamily=Verdana;fontStyle=0;align=center;labelBackgroundColor=none;labelBorderColor=none;whiteSpace=wrap;verticalAlign=middle;" vertex="1" parent="1">
          <mxGeometry x="90" y="230" width="130" height="40" as="geometry" />
        </mxCell>
        <mxCell id="OVLUpKgA7s6hG_SyViUj-31" value="Room Service" style="html=1;dashed=0;whitespace=wrap;strokeColor=#330000;fillColor=#00994D;shadow=0;glass=0;sketch=0;rounded=0;strokeWidth=2;fontFamily=Verdana;fontStyle=0;align=center;labelBackgroundColor=none;labelBorderColor=none;whiteSpace=wrap;verticalAlign=middle;" vertex="1" parent="1">
          <mxGeometry x="90" y="330" width="130" height="40" as="geometry" />
        </mxCell>
        <mxCell id="OVLUpKgA7s6hG_SyViUj-32" value="Manager" style="html=1;dashed=0;whitespace=wrap;strokeColor=#330000;fillColor=#00994D;shadow=1;glass=0;sketch=0;rounded=0;strokeWidth=2;fontFamily=Verdana;fontStyle=0;align=center;labelBackgroundColor=none;labelBorderColor=none;whiteSpace=wrap;verticalAlign=middle;" vertex="1" parent="1">
          <mxGeometry x="90" y="380" width="130" height="40" as="geometry" />
        </mxCell>
        <mxCell id="OVLUpKgA7s6hG_SyViUj-33" value="Daftar Check In &lt;br&gt;Tamu" style="html=1;dashed=0;whitespace=wrap;strokeColor=#330000;fillColor=#00994D;shadow=0;glass=0;sketch=0;rounded=0;strokeWidth=2;fontFamily=Verdana;fontStyle=0;align=center;labelBackgroundColor=none;labelBorderColor=none;whiteSpace=wrap;verticalAlign=middle;" vertex="1" parent="1">
          <mxGeometry x="330" y="280" width="130" height="40" as="geometry" />
        </mxCell>
        <mxCell id="OVLUpKgA7s6hG_SyViUj-34" value="Daftar Reservasi &lt;br&gt;Kamar" style="html=1;dashed=0;whitespace=wrap;strokeColor=#330000;fillColor=#00994D;shadow=0;glass=0;sketch=0;rounded=0;strokeWidth=2;fontFamily=Verdana;fontStyle=0;align=center;labelBackgroundColor=none;labelBorderColor=none;whiteSpace=wrap;verticalAlign=middle;" vertex="1" parent="1">
          <mxGeometry x="330" y="230" width="130" height="40" as="geometry" />
        </mxCell>
        <mxCell id="OVLUpKgA7s6hG_SyViUj-35" value="Daftar Check Out &lt;br&gt;Tamu" style="html=1;dashed=0;whitespace=wrap;strokeColor=#330000;fillColor=#00994D;shadow=0;glass=0;sketch=0;rounded=0;strokeWidth=2;fontFamily=Verdana;fontStyle=0;align=center;labelBackgroundColor=none;labelBorderColor=none;whiteSpace=wrap;verticalAlign=middle;" vertex="1" parent="1">
          <mxGeometry x="330" y="330" width="130" height="40" as="geometry" />
        </mxCell>
        <mxCell id="OVLUpKgA7s6hG_SyViUj-36" value="Tagihan" style="html=1;dashed=0;whitespace=wrap;strokeColor=#330000;fillColor=#00994D;shadow=0;glass=0;sketch=0;rounded=0;strokeWidth=2;fontFamily=Verdana;fontStyle=0;align=center;labelBackgroundColor=none;labelBorderColor=none;whiteSpace=wrap;verticalAlign=middle;" vertex="1" parent="1">
          <mxGeometry x="330" y="380" width="130" height="40" as="geometry" />
        </mxCell>
        <mxCell id="OVLUpKgA7s6hG_SyViUj-37" value="Persiapan Kamar" style="html=1;dashed=0;whitespace=wrap;strokeColor=#330000;fillColor=#00994D;shadow=0;glass=0;sketch=0;rounded=0;strokeWidth=2;fontFamily=Verdana;fontStyle=0;align=center;labelBackgroundColor=none;labelBorderColor=none;whiteSpace=wrap;verticalAlign=middle;" vertex="1" parent="1">
          <mxGeometry x="570" y="280" width="130" height="40" as="geometry" />
        </mxCell>
        <mxCell id="OVLUpKgA7s6hG_SyViUj-38" value="Reservasi Kamar" style="html=1;dashed=0;whitespace=wrap;strokeColor=#330000;fillColor=#00994D;shadow=0;glass=0;sketch=0;rounded=0;strokeWidth=2;fontFamily=Verdana;fontStyle=0;align=center;labelBackgroundColor=none;labelBorderColor=none;whiteSpace=wrap;verticalAlign=middle;" vertex="1" parent="1">
          <mxGeometry x="570" y="230" width="130" height="40" as="geometry" />
        </mxCell>
        <mxCell id="OVLUpKgA7s6hG_SyViUj-39" value="Check In" style="html=1;dashed=0;whitespace=wrap;strokeColor=#330000;fillColor=#00994D;shadow=0;glass=0;sketch=0;rounded=0;strokeWidth=2;fontFamily=Verdana;fontStyle=0;align=center;labelBackgroundColor=none;labelBorderColor=none;whiteSpace=wrap;verticalAlign=middle;" vertex="1" parent="1">
          <mxGeometry x="570" y="330" width="130" height="40" as="geometry" />
        </mxCell>
        <mxCell id="OVLUpKgA7s6hG_SyViUj-40" value="Pembatalan Reservasi" style="html=1;dashed=0;whitespace=wrap;strokeColor=#330000;fillColor=#00994D;shadow=0;glass=0;sketch=0;rounded=0;strokeWidth=2;fontFamily=Verdana;fontStyle=0;align=center;labelBackgroundColor=none;labelBorderColor=none;whiteSpace=wrap;verticalAlign=middle;" vertex="1" parent="1">
          <mxGeometry x="570" y="380" width="130" height="40" as="geometry" />
        </mxCell>
        <mxCell id="OVLUpKgA7s6hG_SyViUj-41" value="Perubahan Data &lt;br&gt;Reservasi" style="html=1;dashed=0;whitespace=wrap;strokeColor=#330000;fillColor=#00994D;shadow=0;glass=0;sketch=0;rounded=0;strokeWidth=2;fontFamily=Verdana;fontStyle=0;align=center;labelBackgroundColor=none;labelBorderColor=none;whiteSpace=wrap;verticalAlign=middle;" vertex="1" parent="1">
          <mxGeometry x="570" y="430" width="130" height="40" as="geometry" />
        </mxCell>
        <mxCell id="OVLUpKgA7s6hG_SyViUj-42" value="Check Out" style="html=1;dashed=0;whitespace=wrap;strokeColor=#330000;fillColor=#00994D;shadow=0;glass=0;sketch=0;rounded=0;strokeWidth=2;fontFamily=Verdana;fontStyle=0;align=center;labelBackgroundColor=none;labelBorderColor=none;whiteSpace=wrap;verticalAlign=middle;" vertex="1" parent="1">
          <mxGeometry x="570" y="480" width="130" height="40" as="geometry" />
        </mxCell>
        <mxCell id="OVLUpKgA7s6hG_SyViUj-43" value="Laporan Informasi &lt;br&gt;Tamu" style="html=1;dashed=0;whitespace=wrap;strokeColor=#330000;fillColor=#00994D;shadow=0;glass=0;sketch=0;rounded=0;strokeWidth=2;fontFamily=Verdana;fontStyle=0;align=center;labelBackgroundColor=none;labelBorderColor=none;whiteSpace=wrap;verticalAlign=middle;" vertex="1" parent="1">
          <mxGeometry x="810" y="280" width="130" height="40" as="geometry" />
        </mxCell>
        <mxCell id="OVLUpKgA7s6hG_SyViUj-44" value="Laporan Reservasi &lt;br&gt;Kamar" style="html=1;dashed=0;whitespace=wrap;strokeColor=#330000;fillColor=#00994D;shadow=0;glass=0;sketch=0;rounded=0;strokeWidth=2;fontFamily=Verdana;fontStyle=0;align=center;labelBackgroundColor=none;labelBorderColor=none;whiteSpace=wrap;verticalAlign=middle;" vertex="1" parent="1">
          <mxGeometry x="810" y="230" width="130" height="40" as="geometry" />
        </mxCell>
        <mxCell id="OVLUpKgA7s6hG_SyViUj-45" value="Laporan Daftar &lt;br&gt;Check In Tamu" style="html=1;dashed=0;whitespace=wrap;strokeColor=#330000;fillColor=#00994D;shadow=0;glass=0;sketch=0;rounded=0;strokeWidth=2;fontFamily=Verdana;fontStyle=0;align=center;labelBackgroundColor=none;labelBorderColor=none;whiteSpace=wrap;verticalAlign=middle;" vertex="1" parent="1">
          <mxGeometry x="810" y="330" width="130" height="40" as="geometry" />
        </mxCell>
        <mxCell id="OVLUpKgA7s6hG_SyViUj-46" value="Laporan Daftar &lt;br&gt;Check Out Tamu" style="html=1;dashed=0;whitespace=wrap;strokeColor=#330000;fillColor=#00994D;shadow=0;glass=0;sketch=0;rounded=0;strokeWidth=2;fontFamily=Verdana;fontStyle=0;align=center;labelBackgroundColor=none;labelBorderColor=none;whiteSpace=wrap;verticalAlign=middle;" vertex="1" parent="1">
          <mxGeometry x="810" y="380" width="130" height="40" as="geometry" />
        </mxCell>
        <mxCell id="OVLUpKgA7s6hG_SyViUj-47" value="Laporan &lt;br&gt;Pembayaran Tagihan" style="html=1;dashed=0;whitespace=wrap;strokeColor=#330000;fillColor=#00994D;shadow=0;glass=0;sketch=0;rounded=0;strokeWidth=2;fontFamily=Verdana;fontStyle=0;align=center;labelBackgroundColor=none;labelBorderColor=none;whiteSpace=wrap;verticalAlign=middle;" vertex="1" parent="1">
          <mxGeometry x="810" y="430" width="130" height="40" as="geometry" />
        </mxCell>
        <mxCell id="OVLUpKgA7s6hG_SyViUj-48" value="&lt;p&gt;&lt;font&gt;&lt;span&gt;SISTEM PEMESANAN KAMAR HOTEL&lt;/span&gt;&lt;/font&gt;&lt;/p&gt;" style="html=1;dashed=0;whitespace=wrap;fillColor=#FF9933;strokeColor=#330000;strokeWidth=2;shadow=0;fontFamily=Verdana;fontStyle=1;align=center;labelBackgroundColor=none;labelBorderColor=none;whiteSpace=wrap;verticalAlign=middle;" vertex="1" parent="1">
          <mxGeometry x="280" y="40" width="400" height="50" as="geometry" />
        </mxCell>
        <mxCell id="OVLUpKgA7s6hG_SyViUj-49" value="ENTITAS HOTEL" style="html=1;dashed=0;whitespace=wrap;strokeColor=#330000;fillColor=#3399FF;shadow=0;glass=0;sketch=0;rounded=0;strokeWidth=2;fontFamily=Verdana;fontStyle=1;align=center;labelBackgroundColor=none;labelBorderColor=none;whiteSpace=wrap;verticalAlign=middle;" vertex="1" parent="1">
          <mxGeometry x="40" y="150" width="160" height="50" as="geometry" />
        </mxCell>
        <mxCell id="OVLUpKgA7s6hG_SyViUj-50" value="DOKUMEN" style="html=1;dashed=0;whitespace=wrap;strokeColor=#330000;fillColor=#3399FF;strokeWidth=2;shadow=0;fontFamily=Verdana;fontStyle=1;align=center;labelBackgroundColor=none;labelBorderColor=none;whiteSpace=wrap;verticalAlign=middle;" vertex="1" parent="1">
          <mxGeometry x="280" y="150" width="160" height="50" as="geometry" />
        </mxCell>
        <mxCell id="OVLUpKgA7s6hG_SyViUj-51" value="PROSES" style="html=1;dashed=0;whitespace=wrap;strokeColor=#330000;fillColor=#3399FF;strokeWidth=2;shadow=0;fontFamily=Verdana;fontStyle=1;align=center;labelBackgroundColor=none;labelBorderColor=none;whiteSpace=wrap;verticalAlign=middle;" vertex="1" parent="1">
          <mxGeometry x="520" y="150" width="160" height="50" as="geometry" />
        </mxCell>
        <mxCell id="OVLUpKgA7s6hG_SyViUj-52" value="LAPORAN" style="html=1;dashed=0;whitespace=wrap;strokeColor=#330000;fillColor=#3399FF;strokeWidth=2;shadow=0;fontFamily=Verdana;fontStyle=1;align=center;labelBackgroundColor=none;labelBorderColor=none;whiteSpace=wrap;verticalAlign=middle;" vertex="1" parent="1">
          <mxGeometry x="760" y="150" width="160" height="50" as="geometry" />
        </mxCell>
        <mxCell id="OVLUpKgA7s6hG_SyViUj-53" value="Laporan Reservasi &lt;br&gt;Kamar" style="html=1;dashed=0;whitespace=wrap;strokeColor=#330000;fillColor=#00994D;shadow=0;glass=0;sketch=0;rounded=0;strokeWidth=2;fontFamily=Verdana;fontStyle=0;align=center;labelBackgroundColor=none;labelBorderColor=none;whiteSpace=wrap;verticalAlign=middle;" vertex="1" parent="1">
          <mxGeometry x="810" y="230" width="130" height="40" as="geometry" />
        </mxCell>
        <mxCell id="OVLUpKgA7s6hG_SyViUj-54" value="Laporan Informasi &lt;br&gt;Tamu" style="html=1;dashed=0;whitespace=wrap;strokeColor=#330000;fillColor=#00994D;shadow=0;glass=0;sketch=0;rounded=0;strokeWidth=2;fontFamily=Verdana;fontStyle=0;align=center;labelBackgroundColor=none;labelBorderColor=none;whiteSpace=wrap;verticalAlign=middle;" vertex="1" parent="1">
          <mxGeometry x="810" y="280" width="130" height="40" as="geometry" />
        </mxCell>
        <mxCell id="OVLUpKgA7s6hG_SyViUj-55" value="&lt;p&gt;&lt;font&gt;&lt;span&gt;SISTEM PEMESANAN KAMAR HOTEL&lt;/span&gt;&lt;/font&gt;&lt;/p&gt;" style="html=1;dashed=0;whitespace=wrap;fillColor=#FF9933;strokeColor=#330000;strokeWidth=2;shadow=0;fontFamily=Verdana;fontStyle=1;align=center;labelBackgroundColor=none;labelBorderColor=none;whiteSpace=wrap;verticalAlign=middle;" vertex="1" parent="1">
          <mxGeometry x="280" y="40" width="400" height="50" as="geometry" />
        </mxCell>
        <mxCell id="OVLUpKgA7s6hG_SyViUj-56" value="ENTITAS HOTEL" style="html=1;dashed=0;whitespace=wrap;strokeColor=#330000;fillColor=#3399FF;shadow=0;glass=0;sketch=0;rounded=0;strokeWidth=2;fontFamily=Verdana;fontStyle=1;align=center;labelBackgroundColor=none;labelBorderColor=none;whiteSpace=wrap;verticalAlign=middle;" vertex="1" parent="1">
          <mxGeometry x="40" y="150" width="160" height="50" as="geometry" />
        </mxCell>
        <mxCell id="OVLUpKgA7s6hG_SyViUj-57" value="DOKUMEN" style="html=1;dashed=0;whitespace=wrap;strokeColor=#330000;fillColor=#3399FF;strokeWidth=2;shadow=0;fontFamily=Verdana;fontStyle=1;align=center;labelBackgroundColor=none;labelBorderColor=none;whiteSpace=wrap;verticalAlign=middle;" vertex="1" parent="1">
          <mxGeometry x="280" y="150" width="160" height="50" as="geometry" />
        </mxCell>
        <mxCell id="OVLUpKgA7s6hG_SyViUj-58" value="PROSES" style="html=1;dashed=0;whitespace=wrap;strokeColor=#330000;fillColor=#3399FF;strokeWidth=2;shadow=0;fontFamily=Verdana;fontStyle=1;align=center;labelBackgroundColor=none;labelBorderColor=none;whiteSpace=wrap;verticalAlign=middle;" vertex="1" parent="1">
          <mxGeometry x="520" y="150" width="160" height="50" as="geometry" />
        </mxCell>
        <mxCell id="OVLUpKgA7s6hG_SyViUj-59" value="LAPORAN" style="html=1;dashed=0;whitespace=wrap;strokeColor=#330000;fillColor=#3399FF;strokeWidth=2;shadow=0;fontFamily=Verdana;fontStyle=1;align=center;labelBackgroundColor=none;labelBorderColor=none;whiteSpace=wrap;verticalAlign=middle;" vertex="1" parent="1">
          <mxGeometry x="760" y="150" width="160" height="50" as="geometry" />
        </mxCell>
        <mxCell id="OVLUpKgA7s6hG_SyViUj-60" value="Laporan Reservasi &lt;br&gt;Kamar" style="html=1;dashed=0;whitespace=wrap;strokeColor=#330000;fillColor=#00994D;shadow=0;glass=0;sketch=0;rounded=0;strokeWidth=2;fontFamily=Verdana;fontStyle=0;align=center;labelBackgroundColor=none;labelBorderColor=none;whiteSpace=wrap;verticalAlign=middle;" vertex="1" parent="1">
          <mxGeometry x="810" y="230" width="130" height="40" as="geometry" />
        </mxCell>
        <mxCell id="OVLUpKgA7s6hG_SyViUj-61" value="Laporan Informasi &lt;br&gt;Tamu" style="html=1;dashed=0;whitespace=wrap;strokeColor=#330000;fillColor=#00994D;shadow=0;glass=0;sketch=0;rounded=0;strokeWidth=2;fontFamily=Verdana;fontStyle=0;align=center;labelBackgroundColor=none;labelBorderColor=none;whiteSpace=wrap;verticalAlign=middle;" vertex="1" parent="1">
          <mxGeometry x="810" y="280" width="130" height="40" as="geometry" />
        </mxCell>
        <mxCell id="OVLUpKgA7s6hG_SyViUj-62" value="Laporan Daftar &lt;br&gt;Check Out Tamu" style="html=1;dashed=0;whitespace=wrap;strokeColor=#330000;fillColor=#00994D;shadow=0;glass=0;sketch=0;rounded=0;strokeWidth=2;fontFamily=Verdana;fontStyle=0;align=center;labelBackgroundColor=none;labelBorderColor=none;whiteSpace=wrap;verticalAlign=middle;" vertex="1" parent="1">
          <mxGeometry x="810" y="380" width="130" height="40" as="geometry" />
        </mxCell>
        <mxCell id="OVLUpKgA7s6hG_SyViUj-63" value="Laporan &lt;br&gt;Pembayaran Tagihan" style="html=1;dashed=0;whitespace=wrap;strokeColor=#330000;fillColor=#00994D;shadow=0;glass=0;sketch=0;rounded=0;strokeWidth=2;fontFamily=Verdana;fontStyle=0;align=center;labelBackgroundColor=none;labelBorderColor=none;whiteSpace=wrap;verticalAlign=middle;" vertex="1" parent="1">
          <mxGeometry x="810" y="430" width="130" height="40" as="geometry" />
        </mxCell>
        <mxCell id="OVLUpKgA7s6hG_SyViUj-64" value="Reservasi Kamar" style="html=1;dashed=0;whitespace=wrap;strokeColor=#330000;fillColor=#00994D;shadow=0;glass=0;sketch=0;rounded=0;strokeWidth=2;fontFamily=Verdana;fontStyle=0;align=center;labelBackgroundColor=none;labelBorderColor=none;whiteSpace=wrap;verticalAlign=middle;" vertex="1" parent="1">
          <mxGeometry x="570" y="230" width="130" height="40" as="geometry" />
        </mxCell>
        <mxCell id="OVLUpKgA7s6hG_SyViUj-65" value="Persiapan Kamar" style="html=1;dashed=0;whitespace=wrap;strokeColor=#330000;fillColor=#00994D;shadow=0;glass=0;sketch=0;rounded=0;strokeWidth=2;fontFamily=Verdana;fontStyle=0;align=center;labelBackgroundColor=none;labelBorderColor=none;whiteSpace=wrap;verticalAlign=middle;" vertex="1" parent="1">
          <mxGeometry x="570" y="280" width="130" height="40" as="geometry" />
        </mxCell>
        <mxCell id="OVLUpKgA7s6hG_SyViUj-66" value="Check In" style="html=1;dashed=0;whitespace=wrap;strokeColor=#330000;fillColor=#00994D;shadow=0;glass=0;sketch=0;rounded=0;strokeWidth=2;fontFamily=Verdana;fontStyle=0;align=center;labelBackgroundColor=none;labelBorderColor=none;whiteSpace=wrap;verticalAlign=middle;" vertex="1" parent="1">
          <mxGeometry x="570" y="330" width="130" height="40" as="geometry" />
        </mxCell>
        <mxCell id="OVLUpKgA7s6hG_SyViUj-67" value="Pembatalan Reservasi" style="html=1;dashed=0;whitespace=wrap;strokeColor=#330000;fillColor=#00994D;shadow=0;glass=0;sketch=0;rounded=0;strokeWidth=2;fontFamily=Verdana;fontStyle=0;align=center;labelBackgroundColor=none;labelBorderColor=none;whiteSpace=wrap;verticalAlign=middle;" vertex="1" parent="1">
          <mxGeometry x="570" y="380" width="130" height="40" as="geometry" />
        </mxCell>
        <mxCell id="OVLUpKgA7s6hG_SyViUj-68" value="Perubahan Data &lt;br&gt;Reservasi" style="html=1;dashed=0;whitespace=wrap;strokeColor=#330000;fillColor=#00994D;shadow=0;glass=0;sketch=0;rounded=0;strokeWidth=2;fontFamily=Verdana;fontStyle=0;align=center;labelBackgroundColor=none;labelBorderColor=none;whiteSpace=wrap;verticalAlign=middle;" vertex="1" parent="1">
          <mxGeometry x="570" y="430" width="130" height="40" as="geometry" />
        </mxCell>
        <mxCell id="OVLUpKgA7s6hG_SyViUj-69" value="&lt;p&gt;&lt;font&gt;&lt;span&gt;SISTEM PEMESANAN KAMAR HOTEL&lt;/span&gt;&lt;/font&gt;&lt;/p&gt;" style="html=1;dashed=0;whitespace=wrap;fillColor=#FF9933;strokeWidth=2;shadow=1;fontFamily=Verdana;fontStyle=1;align=center;labelBackgroundColor=none;labelBorderColor=none;whiteSpace=wrap;verticalAlign=middle;rounded=0;" vertex="1" parent="1">
          <mxGeometry x="280" y="40" width="400" height="50" as="geometry" />
        </mxCell>
        <mxCell id="OVLUpKgA7s6hG_SyViUj-70" value="ENTITAS HOTEL" style="html=1;dashed=0;whitespace=wrap;strokeColor=#330000;fillColor=#3399FF;shadow=1;glass=0;sketch=0;rounded=0;strokeWidth=2;fontFamily=Verdana;fontStyle=1;align=center;labelBackgroundColor=none;labelBorderColor=none;whiteSpace=wrap;verticalAlign=middle;" vertex="1" parent="1">
          <mxGeometry x="40" y="150" width="160" height="50" as="geometry" />
        </mxCell>
        <mxCell id="OVLUpKgA7s6hG_SyViUj-71" value="DOKUMEN" style="html=1;dashed=0;whitespace=wrap;strokeColor=#330000;fillColor=#3399FF;strokeWidth=2;shadow=1;fontFamily=Verdana;fontStyle=1;align=center;labelBackgroundColor=none;labelBorderColor=none;whiteSpace=wrap;verticalAlign=middle;" vertex="1" parent="1">
          <mxGeometry x="280" y="150" width="160" height="50" as="geometry" />
        </mxCell>
        <mxCell id="OVLUpKgA7s6hG_SyViUj-72" value="PROSES" style="html=1;dashed=0;whitespace=wrap;strokeColor=#330000;fillColor=#3399FF;strokeWidth=2;shadow=1;fontFamily=Verdana;fontStyle=1;align=center;labelBackgroundColor=none;labelBorderColor=none;whiteSpace=wrap;verticalAlign=middle;" vertex="1" parent="1">
          <mxGeometry x="520" y="150" width="160" height="50" as="geometry" />
        </mxCell>
        <mxCell id="OVLUpKgA7s6hG_SyViUj-73" value="LAPORAN" style="html=1;dashed=0;whitespace=wrap;strokeColor=#330000;fillColor=#3399FF;strokeWidth=2;shadow=1;fontFamily=Verdana;fontStyle=1;align=center;labelBackgroundColor=none;labelBorderColor=none;whiteSpace=wrap;verticalAlign=middle;" vertex="1" parent="1">
          <mxGeometry x="760" y="150" width="160" height="50" as="geometry" />
        </mxCell>
        <mxCell id="OVLUpKgA7s6hG_SyViUj-74" value="Laporan Reservasi &lt;br&gt;Kamar" style="html=1;dashed=0;whitespace=wrap;strokeColor=#330000;fillColor=#00994D;shadow=1;glass=0;sketch=0;rounded=0;strokeWidth=2;fontFamily=Verdana;fontStyle=0;align=center;labelBackgroundColor=none;labelBorderColor=none;whiteSpace=wrap;verticalAlign=middle;" vertex="1" parent="1">
          <mxGeometry x="810" y="230" width="130" height="40" as="geometry" />
        </mxCell>
        <mxCell id="OVLUpKgA7s6hG_SyViUj-75" value="Laporan Informasi &lt;br&gt;Tamu" style="html=1;dashed=0;whitespace=wrap;strokeColor=#330000;fillColor=#00994D;shadow=1;glass=0;sketch=0;rounded=0;strokeWidth=2;fontFamily=Verdana;fontStyle=0;align=center;labelBackgroundColor=none;labelBorderColor=none;whiteSpace=wrap;verticalAlign=middle;" vertex="1" parent="1">
          <mxGeometry x="810" y="280" width="130" height="40" as="geometry" />
        </mxCell>
        <mxCell id="OVLUpKgA7s6hG_SyViUj-76" value="Laporan Daftar &lt;br&gt;Check Out Tamu" style="html=1;dashed=0;whitespace=wrap;strokeColor=#330000;fillColor=#00994D;shadow=1;glass=0;sketch=0;rounded=0;strokeWidth=2;fontFamily=Verdana;fontStyle=0;align=center;labelBackgroundColor=none;labelBorderColor=none;whiteSpace=wrap;verticalAlign=middle;" vertex="1" parent="1">
          <mxGeometry x="810" y="380" width="130" height="40" as="geometry" />
        </mxCell>
        <mxCell id="OVLUpKgA7s6hG_SyViUj-77" value="Laporan &lt;br&gt;Pembayaran Tagihan" style="html=1;dashed=0;whitespace=wrap;strokeColor=#330000;fillColor=#00994D;shadow=1;glass=0;sketch=0;rounded=0;strokeWidth=2;fontFamily=Verdana;fontStyle=0;align=center;labelBackgroundColor=none;labelBorderColor=none;whiteSpace=wrap;verticalAlign=middle;" vertex="1" parent="1">
          <mxGeometry x="810" y="430" width="130" height="40" as="geometry" />
        </mxCell>
        <mxCell id="OVLUpKgA7s6hG_SyViUj-78" value="Reservasi Kamar" style="html=1;dashed=0;whitespace=wrap;strokeColor=#330000;fillColor=#00994D;shadow=1;glass=0;sketch=0;rounded=0;strokeWidth=2;fontFamily=Verdana;fontStyle=0;align=center;labelBackgroundColor=none;labelBorderColor=none;whiteSpace=wrap;verticalAlign=middle;" vertex="1" parent="1">
          <mxGeometry x="570" y="230" width="130" height="40" as="geometry" />
        </mxCell>
        <mxCell id="OVLUpKgA7s6hG_SyViUj-79" value="Persiapan Kamar" style="html=1;dashed=0;whitespace=wrap;strokeColor=#330000;fillColor=#00994D;shadow=1;glass=0;sketch=0;rounded=0;strokeWidth=2;fontFamily=Verdana;fontStyle=0;align=center;labelBackgroundColor=none;labelBorderColor=none;whiteSpace=wrap;verticalAlign=middle;" vertex="1" parent="1">
          <mxGeometry x="570" y="280" width="130" height="40" as="geometry" />
        </mxCell>
        <mxCell id="OVLUpKgA7s6hG_SyViUj-80" value="Check In" style="html=1;dashed=0;whitespace=wrap;strokeColor=#330000;fillColor=#00994D;shadow=1;glass=0;sketch=0;rounded=0;strokeWidth=2;fontFamily=Verdana;fontStyle=0;align=center;labelBackgroundColor=none;labelBorderColor=none;whiteSpace=wrap;verticalAlign=middle;" vertex="1" parent="1">
          <mxGeometry x="570" y="330" width="130" height="40" as="geometry" />
        </mxCell>
        <mxCell id="OVLUpKgA7s6hG_SyViUj-81" value="Pembatalan Reservasi" style="html=1;dashed=0;whitespace=wrap;strokeColor=#330000;fillColor=#00994D;shadow=1;glass=0;sketch=0;rounded=0;strokeWidth=2;fontFamily=Verdana;fontStyle=0;align=center;labelBackgroundColor=none;labelBorderColor=none;whiteSpace=wrap;verticalAlign=middle;" vertex="1" parent="1">
          <mxGeometry x="570" y="380" width="130" height="40" as="geometry" />
        </mxCell>
        <mxCell id="OVLUpKgA7s6hG_SyViUj-82" value="Perubahan Data &lt;br&gt;Reservasi" style="html=1;dashed=0;whitespace=wrap;strokeColor=#330000;fillColor=#00994D;shadow=1;glass=0;sketch=0;rounded=0;strokeWidth=2;fontFamily=Verdana;fontStyle=0;align=center;labelBackgroundColor=none;labelBorderColor=none;whiteSpace=wrap;verticalAlign=middle;" vertex="1" parent="1">
          <mxGeometry x="570" y="430" width="130" height="40" as="geometry" />
        </mxCell>
        <mxCell id="OVLUpKgA7s6hG_SyViUj-83" value="Daftar Reservasi &lt;br&gt;Kamar" style="html=1;dashed=0;whitespace=wrap;strokeColor=#330000;fillColor=#00994D;shadow=1;glass=0;sketch=0;rounded=0;strokeWidth=2;fontFamily=Verdana;fontStyle=0;align=center;labelBackgroundColor=none;labelBorderColor=none;whiteSpace=wrap;verticalAlign=middle;" vertex="1" parent="1">
          <mxGeometry x="330" y="230" width="130" height="40" as="geometry" />
        </mxCell>
        <mxCell id="OVLUpKgA7s6hG_SyViUj-84" value="Daftar Check In &lt;br&gt;Tamu" style="html=1;dashed=0;whitespace=wrap;strokeColor=#330000;fillColor=#00994D;shadow=1;glass=0;sketch=0;rounded=0;strokeWidth=2;fontFamily=Verdana;fontStyle=0;align=center;labelBackgroundColor=none;labelBorderColor=none;whiteSpace=wrap;verticalAlign=middle;" vertex="1" parent="1">
          <mxGeometry x="330" y="280" width="130" height="40" as="geometry" />
        </mxCell>
        <mxCell id="OVLUpKgA7s6hG_SyViUj-85" value="Daftar Check Out &lt;br&gt;Tamu" style="html=1;dashed=0;whitespace=wrap;strokeColor=#330000;fillColor=#00994D;shadow=1;glass=0;sketch=0;rounded=0;strokeWidth=2;fontFamily=Verdana;fontStyle=0;align=center;labelBackgroundColor=none;labelBorderColor=none;whiteSpace=wrap;verticalAlign=middle;" vertex="1" parent="1">
          <mxGeometry x="330" y="330" width="130" height="40" as="geometry" />
        </mxCell>
        <mxCell id="OVLUpKgA7s6hG_SyViUj-86" value="Tagihan" style="html=1;dashed=0;whitespace=wrap;strokeColor=#330000;fillColor=#00994D;shadow=1;glass=0;sketch=0;rounded=0;strokeWidth=2;fontFamily=Verdana;fontStyle=0;align=center;labelBackgroundColor=none;labelBorderColor=none;whiteSpace=wrap;verticalAlign=middle;" vertex="1" parent="1">
          <mxGeometry x="330" y="380" width="130" height="40" as="geometry" />
        </mxCell>
        <mxCell id="OVLUpKgA7s6hG_SyViUj-87" value="Tamu" style="html=1;dashed=0;whitespace=wrap;strokeColor=#330000;fillColor=#00994D;shadow=1;glass=0;sketch=0;rounded=0;strokeWidth=2;fontFamily=Verdana;fontStyle=0;align=center;labelBackgroundColor=none;labelBorderColor=none;whiteSpace=wrap;verticalAlign=middle;" vertex="1" parent="1">
          <mxGeometry x="90" y="230" width="130" height="40" as="geometry" />
        </mxCell>
        <mxCell id="OVLUpKgA7s6hG_SyViUj-88" value="Receptionist" style="html=1;dashed=0;whitespace=wrap;strokeColor=#330000;fillColor=#00994D;shadow=1;glass=0;sketch=0;rounded=0;strokeWidth=2;fontFamily=Verdana;fontStyle=0;align=center;labelBackgroundColor=none;labelBorderColor=none;whiteSpace=wrap;verticalAlign=middle;" vertex="1" parent="1">
          <mxGeometry x="90" y="280" width="130" height="40" as="geometry" />
        </mxCell>
      </root>
    </mxGraphModel>
  </diagram>
</mxfile>
